<?xml version="1.0" encoding="utf-8"?>
<!-- Generator: Adobe Illustrator 25.0.0, SVG Export Plug-In . SVG Version: 6.00 Build 0)  -->
<svg version="1.1" id="Camada_1" xmlns="http://www.w3.org/2000/svg" xmlns:xlink="http://www.w3.org/1999/xlink" x="0px" y="0px"
	 viewBox="0 0 236 40" enable-background="new 0 0 236 40" xml:space="preserve">
<g enable-background="new    ">
</g>
<g>
	<path fill="none" d="M98.398,16.074c-0.832,0-1.507,0.282-2.024,0.846s-0.849,1.37-0.994,2.42h5.833v-0.336
		c-0.019-0.933-0.271-1.654-0.754-2.164C99.975,16.329,99.289,16.074,98.398,16.074z"/>
	<path fill="none" d="M134.051,11.083h-3.99v6.631h3.889c1.151,0,2.029-0.271,2.634-0.812s0.907-1.315,0.907-2.321
		c0-1.035-0.305-1.872-0.914-2.511S135.125,11.103,134.051,11.083z"/>
	<path fill="none" d="M154.132,16.074c-0.832,0-1.507,0.282-2.024,0.846s-0.849,1.37-0.994,2.42h5.833v-0.336
		c-0.019-0.933-0.271-1.654-0.754-2.164C155.708,16.329,155.021,16.074,154.132,16.074z"/>
	<path fill="none" d="M45.166,16.074c-1.026,0-1.819,0.4-2.38,1.199c-0.561,0.8-0.842,2.037-0.842,3.713
		c0,1.492,0.281,2.634,0.842,3.423c0.561,0.79,1.364,1.185,2.409,1.185c1.016,0,1.809-0.39,2.38-1.17s0.856-2.027,0.856-3.742
		c0-1.463-0.285-2.597-0.856-3.401C47.004,16.477,46.201,16.074,45.166,16.074z"/>
	<path fill="none" d="M78.536,16.104c-1.006,0-1.797,0.412-2.373,1.235c-0.576,0.823-0.864,2.054-0.864,3.691
		c0,1.424,0.285,2.541,0.856,3.35c0.571,0.81,1.354,1.214,2.351,1.214c1.277,0,2.191-0.479,2.743-1.438v-6.613
		C80.688,16.583,79.783,16.104,78.536,16.104z"/>
	<path fill="none" d="M186.703,16.074c-0.832,0-1.507,0.282-2.024,0.846s-0.849,1.37-0.994,2.42h5.833v-0.336
		c-0.019-0.933-0.271-1.654-0.754-2.164C188.279,16.329,187.593,16.074,186.703,16.074z"/>
	<path fill="#222222" d="M27.625,22.184c0,1.055-0.247,1.867-0.74,2.438c-0.494,0.571-1.156,0.856-1.988,0.856
		c-0.938,0-1.625-0.247-2.061-0.74c-0.435-0.493-0.653-1.257-0.653-2.293h-4.382c0,2.08,0.624,3.688,1.872,4.825
		c1.248,1.137,2.99,1.705,5.224,1.705c1.364,0,2.588-0.28,3.671-0.842c1.083-0.561,1.923-1.356,2.518-2.387
		c0.595-1.03,0.893-2.218,0.893-3.562V7.557h-4.354V22.184z"/>
	<path fill="#222222" d="M50.354,14.638c-1.34-1.296-3.069-1.944-5.188-1.944c-1.49,0-2.798,0.334-3.925,1.001
		c-1.127,0.668-1.991,1.611-2.59,2.83c-0.6,1.219-0.9,2.607-0.9,4.164v0.189c0,2.495,0.675,4.469,2.024,5.92s3.156,2.177,5.42,2.177
		s4.068-0.728,5.413-2.184s2.017-3.389,2.017-5.797l-0.029-1.074C52.441,17.695,51.693,15.935,50.354,14.638z M47.575,24.424
		c-0.571,0.78-1.364,1.17-2.38,1.17c-1.045,0-1.848-0.395-2.409-1.185c-0.561-0.789-0.842-1.931-0.842-3.423
		c0-1.676,0.281-2.913,0.842-3.713c0.561-0.799,1.354-1.199,2.38-1.199c1.035,0,1.838,0.402,2.409,1.206
		c0.571,0.805,0.856,1.938,0.856,3.401C48.431,22.397,48.146,23.644,47.575,24.424z"/>
	<path fill="#222222" d="M62.257,14.856l-0.116-1.872h-3.961v15.701h4.194V18.411c0.493-1.074,1.533-1.611,3.12-1.611
		c0.436,0,0.938,0.039,1.509,0.116l0.058-4.034c-0.406-0.126-0.842-0.188-1.306-0.188C64.264,12.693,63.098,13.414,62.257,14.856z"
		/>
	<path fill="#222222" d="M81.481,14.464c-0.958-1.181-2.298-1.771-4.02-1.771c-1.944,0-3.49,0.735-4.636,2.206
		c-1.146,1.47-1.719,3.41-1.719,5.818v0.175c0,2.438,0.583,4.395,1.749,5.869c1.166,1.476,2.692,2.213,4.578,2.213
		c1.577,0,2.849-0.546,3.816-1.64v0.842c0,1.093-0.31,1.938-0.929,2.532s-1.485,0.893-2.598,0.893c-1.49,0-2.757-0.586-3.802-1.756
		L72.063,32.4c0.561,0.726,1.388,1.318,2.481,1.777c1.093,0.46,2.215,0.689,3.367,0.689c1.519,0,2.844-0.266,3.976-0.798
		s2.01-1.307,2.634-2.322s0.936-2.21,0.936-3.584V12.984h-3.802L81.481,14.464z M81.249,24.155
		c-0.551,0.959-1.466,1.438-2.743,1.438c-0.997,0-1.78-0.404-2.351-1.214c-0.571-0.809-0.856-1.926-0.856-3.35
		c0-1.638,0.288-2.868,0.864-3.691c0.575-0.823,1.366-1.235,2.373-1.235c1.248,0,2.152,0.479,2.713,1.438V24.155z"/>
	<path fill="#222222" d="M98.413,12.693c-1.432,0-2.707,0.336-3.824,1.009c-1.118,0.672-1.981,1.63-2.59,2.873
		s-0.914,2.653-0.914,4.229v0.406c0,2.352,0.723,4.232,2.169,5.646c1.446,1.412,3.32,2.118,5.623,2.118
		c1.306,0,2.496-0.249,3.57-0.747c1.074-0.498,1.925-1.192,2.554-2.082l-2.061-2.308c-0.91,1.171-2.172,1.756-3.788,1.756
		c-1.044,0-1.908-0.31-2.59-0.929c-0.682-0.619-1.091-1.441-1.227-2.467h9.999v-1.713c0-2.485-0.617-4.406-1.851-5.761
		C102.251,13.37,100.561,12.693,98.413,12.693z M101.213,19.34H95.38c0.145-1.05,0.476-1.856,0.994-2.42s1.192-0.846,2.024-0.846
		c0.89,0,1.577,0.255,2.061,0.766c0.484,0.51,0.735,1.231,0.754,2.164V19.34z"/>
	<path fill="#E9B949" d="M138.136,8.427c-1.204-0.58-2.6-0.87-4.187-0.87h-8.242v21.128h4.354V21.24h3.816
		c2.505,0,4.467-0.597,5.884-1.792c1.417-1.194,2.126-2.827,2.126-4.897c0-1.364-0.324-2.58-0.972-3.649
		C140.267,9.832,139.34,9.008,138.136,8.427z M136.583,16.901c-0.604,0.542-1.482,0.812-2.634,0.812h-3.889v-6.631h3.99
		c1.074,0.02,1.916,0.348,2.525,0.986s0.914,1.476,0.914,2.511C137.49,15.586,137.188,16.359,136.583,16.901z"/>
	<path fill="#E9B949" d="M154.146,12.693c-1.433,0-2.707,0.336-3.824,1.009c-1.117,0.672-1.98,1.63-2.59,2.873
		s-0.914,2.653-0.914,4.229v0.406c0,2.352,0.723,4.232,2.169,5.646c1.446,1.412,3.32,2.118,5.623,2.118
		c1.306,0,2.496-0.249,3.57-0.747c1.073-0.498,1.925-1.192,2.554-2.082l-2.061-2.308c-0.91,1.171-2.172,1.756-3.788,1.756
		c-1.044,0-1.908-0.31-2.59-0.929s-1.091-1.441-1.227-2.467h9.999v-1.713c0-2.485-0.617-4.406-1.851-5.761
		S156.294,12.693,154.146,12.693z M156.946,19.34h-5.833c0.146-1.05,0.477-1.856,0.994-2.42s1.192-0.846,2.024-0.846
		c0.89,0,1.576,0.255,2.061,0.766c0.483,0.51,0.735,1.231,0.754,2.164V19.34z"/>
	<path fill="#E9B949" d="M170.497,14.856l-0.116-1.872h-3.961v15.701h4.193V18.411c0.493-1.074,1.533-1.611,3.12-1.611
		c0.436,0,0.938,0.039,1.509,0.116l0.059-4.034c-0.406-0.126-0.842-0.188-1.307-0.188C172.505,12.693,171.339,13.414,170.497,14.856
		z"/>
	<path fill="#E9B949" d="M186.718,12.693c-1.433,0-2.707,0.336-3.824,1.009c-1.117,0.672-1.98,1.63-2.59,2.873
		s-0.914,2.653-0.914,4.229v0.406c0,2.352,0.723,4.232,2.169,5.646c1.446,1.412,3.32,2.118,5.623,2.118
		c1.306,0,2.496-0.249,3.57-0.747c1.073-0.498,1.925-1.192,2.554-2.082l-2.061-2.308c-0.91,1.171-2.172,1.756-3.788,1.756
		c-1.044,0-1.908-0.31-2.59-0.929s-1.091-1.441-1.227-2.467h9.999v-1.713c0-2.485-0.617-4.406-1.851-5.761
		S188.865,12.693,186.718,12.693z M189.518,19.34h-5.833c0.146-1.05,0.477-1.856,0.994-2.42s1.192-0.846,2.024-0.846
		c0.89,0,1.576,0.255,2.061,0.766c0.483,0.51,0.735,1.231,0.754,2.164V19.34z"/>
	<path fill="#E9B949" d="M208.249,19.949c-0.716-0.262-1.597-0.496-2.641-0.704c-1.045-0.208-1.788-0.455-2.228-0.74
		c-0.44-0.285-0.66-0.66-0.66-1.124c0-0.494,0.193-0.9,0.58-1.22s0.934-0.479,1.64-0.479c0.822,0,1.427,0.196,1.813,0.588
		c0.388,0.392,0.581,0.888,0.581,1.487h4.193c0-1.5-0.598-2.719-1.792-3.657c-1.195-0.938-2.789-1.407-4.781-1.407
		c-1.867,0-3.379,0.467-4.535,1.4s-1.733,2.097-1.733,3.49c0,2.389,1.866,3.976,5.601,4.759c1.122,0.232,1.938,0.496,2.445,0.791
		c0.508,0.296,0.762,0.699,0.762,1.212c0,0.493-0.205,0.893-0.616,1.197S205.859,26,205.057,26c-0.861,0-1.548-0.198-2.061-0.595
		s-0.789-0.968-0.827-1.713h-3.977c0,0.948,0.291,1.831,0.871,2.648s1.381,1.461,2.401,1.931c1.021,0.469,2.188,0.703,3.505,0.703
		c1.944,0,3.53-0.442,4.76-1.327c1.229-0.886,1.843-2.044,1.843-3.476C211.572,22.169,210.464,20.762,208.249,19.949z"/>
</g>
</svg>
